<svg width="537" height="78" viewBox="0 0 537 78" fill="none" xmlns="http://www.w3.org/2000/svg">
<path d="M114.625 71.5C112.146 71.5 109.885 71.0208 107.844 70.0625C105.802 69.1042 104.177 67.6875 102.969 65.8125C101.781 63.9167 101.188 61.5938 101.188 58.8438V45.0625H112.062V58.1875C112.062 59.1458 112.25 59.9167 112.625 60.5C113.021 61.0833 113.646 61.375 114.5 61.375C116.146 61.375 116.969 60.3646 116.969 58.3438V16H128.062V57.25C128.062 60.1667 127.49 62.6979 126.344 64.8438C125.198 66.9688 123.615 68.6146 121.594 69.7812C119.573 70.9271 117.25 71.5 114.625 71.5ZM130.812 71L136.125 16H154.781L160 71H149.594L148.812 62.125H142.188L141.5 71H130.812ZM142.969 53.3438H147.969L145.562 25.375H145.062L142.969 53.3438ZM176.438 71.5C171.417 71.5 167.792 70.25 165.562 67.75C163.354 65.25 162.25 61.2708 162.25 55.8125V50.4375H173.125V57.3125C173.125 58.5833 173.312 59.5833 173.688 60.3125C174.083 61.0208 174.76 61.375 175.719 61.375C176.719 61.375 177.406 61.0833 177.781 60.5C178.177 59.9167 178.375 58.9583 178.375 57.625C178.375 55.9375 178.208 54.5312 177.875 53.4062C177.542 52.2604 176.958 51.1771 176.125 50.1562C175.312 49.1146 174.177 47.9062 172.719 46.5312L167.781 41.8438C164.094 38.3646 162.25 34.3854 162.25 29.9062C162.25 25.2188 163.333 21.6458 165.5 19.1875C167.688 16.7292 170.844 15.5 174.969 15.5C180.01 15.5 183.583 16.8438 185.688 19.5312C187.812 22.2188 188.875 26.3021 188.875 31.7812H177.688V28C177.688 27.25 177.469 26.6667 177.031 26.25C176.615 25.8333 176.042 25.625 175.312 25.625C174.438 25.625 173.792 25.875 173.375 26.375C172.979 26.8542 172.781 27.4792 172.781 28.25C172.781 29.0208 172.99 29.8542 173.406 30.75C173.823 31.6458 174.646 32.6771 175.875 33.8438L182.219 39.9375C183.49 41.1458 184.656 42.4271 185.719 43.7812C186.781 45.1146 187.635 46.6771 188.281 48.4688C188.927 50.2396 189.25 52.4062 189.25 54.9688C189.25 60.1354 188.292 64.1875 186.375 67.125C184.479 70.0417 181.167 71.5 176.438 71.5ZM206 71.5C200.979 71.5 197.354 70.25 195.125 67.75C192.917 65.25 191.812 61.2708 191.812 55.8125V50.4375H202.688V57.3125C202.688 58.5833 202.875 59.5833 203.25 60.3125C203.646 61.0208 204.323 61.375 205.281 61.375C206.281 61.375 206.969 61.0833 207.344 60.5C207.74 59.9167 207.938 58.9583 207.938 57.625C207.938 55.9375 207.771 54.5312 207.438 53.4062C207.104 52.2604 206.521 51.1771 205.688 50.1562C204.875 49.1146 203.74 47.9062 202.281 46.5312L197.344 41.8438C193.656 38.3646 191.812 34.3854 191.812 29.9062C191.812 25.2188 192.896 21.6458 195.062 19.1875C197.25 16.7292 200.406 15.5 204.531 15.5C209.573 15.5 213.146 16.8438 215.25 19.5312C217.375 22.2188 218.438 26.3021 218.438 31.7812H207.25V28C207.25 27.25 207.031 26.6667 206.594 26.25C206.177 25.8333 205.604 25.625 204.875 25.625C204 25.625 203.354 25.875 202.938 26.375C202.542 26.8542 202.344 27.4792 202.344 28.25C202.344 29.0208 202.552 29.8542 202.969 30.75C203.385 31.6458 204.208 32.6771 205.438 33.8438L211.781 39.9375C213.052 41.1458 214.219 42.4271 215.281 43.7812C216.344 45.1146 217.198 46.6771 217.844 48.4688C218.49 50.2396 218.812 52.4062 218.812 54.9688C218.812 60.1354 217.854 64.1875 215.938 67.125C214.042 70.0417 210.729 71.5 206 71.5ZM222.5 71V16H244.5V26.625H233.688V37.3438H244.062V47.6875H233.688V60.2812H245.219V71H222.5ZM248.875 71V16H259.812V35.6562H265V16H275.938V71H265V46.0625H259.812V71H248.875ZM293.625 71.5C289.646 71.5 286.438 70.2604 284 67.7812C281.583 65.3021 280.375 61.8333 280.375 57.375V32C280.375 26.6667 281.427 22.5833 283.531 19.75C285.656 16.9167 289.104 15.5 293.875 15.5C296.479 15.5 298.792 15.9792 300.812 16.9375C302.854 17.8958 304.458 19.3333 305.625 21.25C306.792 23.1458 307.375 25.5417 307.375 28.4375V37.9375H296.438V29.8125C296.438 28.1667 296.229 27.0625 295.812 26.5C295.396 25.9167 294.75 25.625 293.875 25.625C292.854 25.625 292.167 26 291.812 26.75C291.458 27.4792 291.281 28.4583 291.281 29.6875V57.2188C291.281 58.7396 291.5 59.8125 291.938 60.4375C292.396 61.0625 293.042 61.375 293.875 61.375C294.812 61.375 295.469 60.9896 295.844 60.2188C296.24 59.4479 296.438 58.4479 296.438 57.2188V47.3125H307.5V57.7188C307.5 62.5521 306.281 66.0625 303.844 68.25C301.406 70.4167 298 71.5 293.625 71.5ZM324.312 71.5C319.917 71.5 316.552 70.1771 314.219 67.5312C311.906 64.8646 310.75 61.0208 310.75 56V29.875C310.75 25.1667 311.896 21.5938 314.188 19.1562C316.5 16.7188 319.875 15.5 324.312 15.5C328.75 15.5 332.115 16.7188 334.406 19.1562C336.719 21.5938 337.875 25.1667 337.875 29.875V56C337.875 61.0208 336.708 64.8646 334.375 67.5312C332.062 70.1771 328.708 71.5 324.312 71.5ZM324.406 61.375C326.073 61.375 326.906 59.7604 326.906 56.5312V29.6875C326.906 26.9792 326.094 25.625 324.469 25.625C322.635 25.625 321.719 27.0104 321.719 29.7812V56.5938C321.719 58.3021 321.927 59.5312 322.344 60.2812C322.76 61.0104 323.448 61.375 324.406 61.375ZM342.312 71V16H357.438C361.396 16 364.375 17.1042 366.375 19.3125C368.375 21.5 369.375 24.7083 369.375 28.9375V54.6875C369.375 59.8958 368.458 63.9167 366.625 66.75C364.812 69.5833 361.625 71 357.062 71H342.312ZM353.375 61.2812H355.281C357.302 61.2812 358.312 60.3021 358.312 58.3438V29.9688C358.312 28.1354 358.062 26.9583 357.562 26.4375C357.083 25.8958 356.094 25.625 354.594 25.625H353.375V61.2812ZM373.875 71V16H395.875V26.625H385.062V37.3438H395.438V47.6875H385.062V60.2812H396.594V71H373.875ZM413.062 71.5C409.083 71.5 405.875 70.2604 403.438 67.7812C401.021 65.3021 399.812 61.8333 399.812 57.375V32C399.812 26.6667 400.865 22.5833 402.969 19.75C405.094 16.9167 408.542 15.5 413.312 15.5C415.917 15.5 418.229 15.9792 420.25 16.9375C422.292 17.8958 423.896 19.3333 425.062 21.25C426.229 23.1458 426.812 25.5417 426.812 28.4375V37.9375H415.875V29.8125C415.875 28.1667 415.667 27.0625 415.25 26.5C414.833 25.9167 414.188 25.625 413.312 25.625C412.292 25.625 411.604 26 411.25 26.75C410.896 27.4792 410.719 28.4583 410.719 29.6875V57.2188C410.719 58.7396 410.938 59.8125 411.375 60.4375C411.833 61.0625 412.479 61.375 413.312 61.375C414.25 61.375 414.906 60.9896 415.281 60.2188C415.677 59.4479 415.875 58.4479 415.875 57.2188V47.3125H426.938V57.7188C426.938 62.5521 425.719 66.0625 423.281 68.25C420.844 70.4167 417.438 71.5 413.062 71.5ZM429.125 71L434.438 16H453.094L458.312 71H447.906L447.125 62.125H440.5L439.812 71H429.125ZM441.281 53.3438H446.281L443.875 25.375H443.375L441.281 53.3438ZM461.688 71V16H478.438L483.062 49.5312L487.656 16H504.562V71H494.5V31.375L488.188 71H478.312L471.625 31.375V71H461.688ZM509.438 71V16H523.969C527.01 16 529.417 16.6771 531.188 18.0312C532.979 19.3854 534.26 21.3125 535.031 23.8125C535.802 26.3125 536.188 29.2917 536.188 32.75C536.188 36.0833 535.865 38.9896 535.219 41.4688C534.573 43.9271 533.417 45.8333 531.75 47.1875C530.104 48.5417 527.76 49.2188 524.719 49.2188H520.25V71H509.438ZM520.25 39.3438H520.875C522.917 39.3438 524.167 38.7708 524.625 37.625C525.083 36.4792 525.312 34.7917 525.312 32.5625C525.312 30.4792 525.083 28.875 524.625 27.75C524.188 26.6042 523.135 26.0312 521.469 26.0312H520.25V39.3438Z" fill="white"/>
<path d="M47.5 6.75C48.7023 6.75 49.8898 6.95781 51.0179 7.35859L92.6547 22.3953C94.0648 22.9148 95 24.2508 95 25.75C95 27.2492 94.0648 28.5852 92.6547 29.1047L84.0601 32.207C86.4945 36.0367 87.875 40.5641 87.875 45.3289V49.5C87.875 53.7156 89.4781 58.0648 91.1851 61.4937C92.15 63.4234 93.2484 65.3234 94.525 67.075C95 67.7133 95.1336 68.5445 94.8664 69.3016C94.5992 70.0586 93.9758 70.6227 93.2039 70.8156L83.7039 73.1906C83.0804 73.3539 82.4125 73.2352 81.8633 72.8938C81.314 72.5523 80.9281 71.9883 80.8093 71.35C79.5328 64.9969 80.1711 59.2969 81.1211 55.2148C81.5961 53.107 82.2343 50.9547 83.125 48.9805V45.3289C83.125 40.8461 81.6109 36.6156 78.9836 33.2312C77.0687 30.9305 74.5898 29.075 71.6804 27.932L48.3758 18.7734C47.1586 18.2984 45.7781 18.8922 45.3031 20.1094C44.8281 21.3266 45.4219 22.707 46.639 23.182L69.9437 32.3406C71.7843 33.068 73.4023 34.1812 74.7234 35.5469L51.0328 44.0969C49.9047 44.4977 48.7172 44.7055 47.5148 44.7055C46.3125 44.7055 45.125 44.4977 43.9968 44.0969L2.34528 29.1047C0.935127 28.6 -2.28882e-05 27.2492 -2.28882e-05 25.75C-2.28882e-05 24.2508 0.935127 22.9148 2.34528 22.3953L43.982 7.35859C45.1101 6.95781 46.2976 6.75 47.5 6.75ZM76 62.5625C76 67.8023 63.2344 73.25 47.5 73.25C31.7656 73.25 19 67.8023 19 62.5625L21.2711 40.9797L42.3789 48.6094C44.0265 49.2031 45.7633 49.5 47.5 49.5C49.2367 49.5 50.9883 49.2031 52.6211 48.6094L73.7289 40.9797L76 62.5625Z" fill="#FB2C36"/>
</svg>
